<svg xmlns="http://www.w3.org/2000/svg" viewBox="0 0 180 180">
  <defs>
    <linearGradient id="bg" x1="0%" y1="0%" x2="100%" y2="100%">
      <stop offset="0%" style="stop-color:#e63946"/>
      <stop offset="100%" style="stop-color:#9d4edd"/>
    </linearGradient>
  </defs>
  <rect width="180" height="180" rx="30" fill="url(#bg)"/>
  <!-- Fork from secretlondon (public domain) - rotated vertical -->
  <g transform="translate(90,90) rotate(-90)">
    <svg x="-70" y="-12" width="140" height="24" viewBox="0 0 288.45 47.063">
      <g transform="translate(-19.089 -173.95)">
        <path style="fill:#ffffff;stroke:#333333;stroke-width:1px" d="m30.219 206.34c-14.173 0-14.173-17.717 0-17.717l162.99 3.5433c10.63 0 10.63-17.717 24.803-17.717l85.039 1.7716c5.315 0 5.315 5.315 0 5.315h-70.866c-7.0866 0-7.0866 7.0866 0 7.0866h70.866c5.315 0 5.315 5.315 0 5.315l-76.181 0.00001c-7.0866 0-7.0866 7.0866 0 7.0866h76.181c5.315 0 5.315 5.315 0 5.315h-70.866c-7.0866 0-7.0866 7.0866 0 7.0866h70.866c5.315 0 5.315 5.315 0 5.315l-85.039 1.7717c-14.173 0-14.173-17.717-24.803-17.717l-162.99 3.57z"/>
      </g>
    </svg>
  </g>
</svg>
